<svg width="18" height="18" viewBox="0 0 18 18" fill="none" xmlns="http://www.w3.org/2000/svg">
<g clip-path="url(#clip0_3909_520)">
<rect width="18" height="18" fill="white"/>
<path d="M8.95076 17.2198C8.04931 15.8722 7.28637 14.7514 6.64016 13.8022C5.49365 12.118 4.7146 10.9736 4.18135 10.0592C3.77366 9.36011 3.5365 8.83832 3.39651 8.35084C3.25805 7.86867 3.20459 7.38504 3.20459 6.75C3.20459 3.41436 5.82088 0.75 9.00004 0.75C12.1792 0.75 14.7955 3.41436 14.7955 6.75C14.7955 7.38504 14.742 7.86867 14.6036 8.35084C14.4636 8.83832 14.2264 9.36011 13.8187 10.0592C13.2855 10.9736 12.5064 12.118 11.3599 13.8022C10.7138 14.7513 9.95101 15.8718 9.04973 17.2192C9.03876 17.2355 9.02946 17.2415 9.02407 17.2443C9.01735 17.2478 9.00915 17.25 9.00004 17.25C8.99094 17.25 8.98274 17.2478 8.97601 17.2443C8.97057 17.2415 8.96116 17.2353 8.95008 17.2188L8.32736 17.6368L8.95076 17.2198ZM9.00004 10.3125C10.9421 10.3125 12.4773 8.6956 12.4773 6.75C12.4773 4.8044 10.9421 3.1875 9.00004 3.1875C7.05801 3.1875 5.52277 4.8044 5.52277 6.75C5.52277 8.6956 7.05801 10.3125 9.00004 10.3125Z" stroke="#8D8D8D" stroke-width="1.5"/>
</g>
<defs>
<clipPath id="clip0_3909_520">
<rect width="18" height="18" fill="white"/>
</clipPath>
</defs>
</svg>
